# xmcd
#
# Track frame offsets: 
#        150
#        10260
#        29170
#        48215
#        70257
#        82014
#        101505
#        131245
#        143494
#        167504
#        187855
#        201506
#        222891
#        235819
#        256376
#
# Disc length: 3654 seconds
#
# Revision: 0
# Processed by: cddbd v1.5.2PL0 Copyright (c) Steve Scherf et al.
# Submitted via: ExactAudioCopy v0.95a5
#
DISCID=d30e440f
DTITLE=Biscuit Jack  - We Belong Together
DYEAR=1900
DGENRE=Blues
TTITLE0=You Never Answer My Emails
TTITLE1=San Antonio Riverwalk
TTITLE2=Going Down to the River
TTITLE3=I Changed the Lock
TTITLE4=Weekend Millionaire
TTITLE5=Once in Your Lifetime
TTITLE6=Sick and Sad
TTITLE7=I'm Looking for You
TTITLE8=Waiting Such a Long Time
TTITLE9=50 Years of Rock'n'roll
TTITLE10=Dance the Blues
TTITLE11=It's Hard to Decide
TTITLE12=My Blues
TTITLE13=We Belong Together
TTITLE14=Professor Longhair Is Gone
EXTD=
EXTT0=
EXTT1=
EXTT2=
EXTT3=
EXTT4=
EXTT5=
EXTT6=
EXTT7=
EXTT8=
EXTT9=
EXTT10=
EXTT11=
EXTT12=
EXTT13=
EXTT14=
PLAYORDER=
